<?xml version="1.0" encoding="UTF-8"?>
<svg id="Layer_1" xmlns="http://www.w3.org/2000/svg" version="1.1" viewBox="0 0 141.73 141.73">
  <!-- Generator: Adobe Illustrator 30.4.0, SVG Export Plug-In . SVG Version: 2.1.4 Build 226)  -->
  <defs>
    <style>
      .st0 {
        fill: #fff;
      }
    </style>
  </defs>
  <path class="st0" d="M221.86,35.97c1.92.7,3.88,2.32,3.88,4.65v15.35c-.01,2.75-2.57,4.59-5.04,4.54s-4.85-1.94-4.86-4.6l-.05-14.86c0-2.58,1.72-4.53,4.15-5.08h1.92Z"/>
  <path class="st0" d="M268.98,35.97c2.02.58,4.04,2.31,4.04,4.68v15.25c0,2.66-2.37,4.56-4.87,4.61-2.25.04-4.92-1.79-4.94-4.43l-.15-14.82c-.03-2.62,1.56-4.6,3.93-5.29h1.98Z"/>
  <path class="st0" d="M276.31,44.92l5.72-.03c4.01.37,7.26,3.35,7.87,7.39v68.21c-.67,3.79-3.58,6.34-7.39,7.07h-75.93c-3.87-.67-6.78-3.21-7.39-7.08l.02-67.77c0-4.37,4.07-7.77,8.17-7.79l5.39-.03.1,11.35c.04,4.12,3.94,7.03,7.8,7.09s7.8-2.89,8.05-7.08l.1-11.35h31.46s.09,11.35.09,11.35c.03,4.12,3.98,7.03,7.82,7.08,4.13.05,7.57-2.91,8.12-7.08v-11.32ZM282.6,67.02h-76.13v53.36h76.13v-53.36Z"/>
  <path class="st0" d="M272.33,89.13h-10.91c-.99,0-1.82-.85-2.03-1.7v-7.37c.01-1.43,1.16-2.41,2.54-2.41h10.13c1.39,0,2.52,1.03,2.52,2.45v6.66c0,1.13-.93,2.37-2.25,2.37Z"/>
  <path class="st0" d="M227.42,89.14h-10.75c-1.03-.15-1.87-.79-2.18-1.77v-7.28c.01-1.42,1.13-2.45,2.53-2.45h10.13c1.38,0,2.54.99,2.54,2.41v6.72c0,1.24-.98,2.24-2.27,2.36Z"/>
  <path class="st0" d="M249.65,89.14h-10.34c-1.43.01-2.49-1.09-2.48-2.51l.02-6.63c0-1.16,1-2.32,2.2-2.33l10.35-.03c1.37,0,2.61.89,2.62,2.38l.02,6.61c0,1.29-.94,2.51-2.38,2.51Z"/>
  <path class="st0" d="M227.48,109.33h-10.7c-.84-.02-2.23-.76-2.24-1.71l-.04-7.5c0-1.18,1.05-2.3,2.29-2.3h10.57c1.36,0,2.33,1.2,2.33,2.45v6.58c0,1.27-.84,2.25-2.21,2.48Z"/>
  <path class="st0" d="M272.18,109.31h-10.47c-1.09,0-2-.67-2.32-1.64v-7.4c0-1.25.96-2.44,2.33-2.44l10.34-.02c1.46,0,2.52,1.09,2.52,2.51v6.51c0,1.26-.93,2.49-2.4,2.49Z"/>
  <path class="st0" d="M249.73,109.31h-10.48c-1.36.01-2.41-1.11-2.41-2.42v-6.64c0-1.33,1.05-2.43,2.41-2.43h10.36c1.36,0,2.42,1.1,2.42,2.43v6.65c0,1.16-.92,2.41-2.3,2.42Z"/>
  <g>
    <path class="st0" d="M48.6,25.26c1.92.7,3.88,2.32,3.88,4.65v15.35c-.01,2.75-2.57,4.59-5.04,4.54s-4.85-1.94-4.86-4.6l-.05-14.86c0-2.58,1.72-4.53,4.15-5.08h1.92Z"/>
    <path class="st0" d="M95.72,25.26c2.02.58,4.04,2.31,4.04,4.68v15.25c0,2.66-2.37,4.56-4.87,4.61-2.25.04-4.92-1.79-4.94-4.43l-.15-14.82c-.03-2.62,1.56-4.6,3.93-5.29h1.98Z"/>
    <path class="st0" d="M103.06,34.22l5.72-.03c4.01.37,7.26,3.35,7.87,7.39v68.21c-.67,3.79-3.58,6.34-7.39,7.07H33.32c-3.87-.67-6.78-3.21-7.39-7.08l.02-67.77c0-4.37,4.07-7.77,8.17-7.79l5.39-.03.1,11.35c.04,4.12,3.94,7.03,7.8,7.09s7.8-2.89,8.05-7.08l.1-11.35h31.46s.09,11.35.09,11.35c.03,4.12,3.98,7.03,7.82,7.08,4.13.05,7.57-2.91,8.12-7.08v-11.32ZM109.35,56.31H33.22v53.36h76.13v-53.36Z"/>
    <path class="st0" d="M99.07,78.42h-10.91c-.99,0-1.82-.85-2.03-1.7v-7.37c.01-1.43,1.16-2.41,2.54-2.41h10.13c1.39,0,2.52,1.03,2.52,2.45v6.66c0,1.13-.93,2.37-2.25,2.37Z"/>
    <path class="st0" d="M54.16,78.43h-10.75c-1.03-.15-1.87-.79-2.18-1.77v-7.28c.01-1.42,1.13-2.45,2.53-2.45h10.13c1.38,0,2.54.99,2.54,2.41v6.72c0,1.24-.98,2.24-2.27,2.36Z"/>
    <path class="st0" d="M76.39,78.43h-10.34c-1.43.01-2.49-1.09-2.48-2.51l.02-6.63c0-1.16,1-2.32,2.2-2.33l10.35-.03c1.37,0,2.61.89,2.62,2.38l.02,6.61c0,1.29-.94,2.51-2.38,2.51Z"/>
    <path class="st0" d="M54.22,98.62h-10.7c-.84-.02-2.23-.76-2.24-1.71l-.04-7.5c0-1.18,1.05-2.3,2.29-2.3h10.57c1.36,0,2.33,1.2,2.33,2.45v6.58c0,1.27-.84,2.25-2.21,2.48Z"/>
    <path class="st0" d="M98.92,98.61h-10.47c-1.09,0-2-.67-2.32-1.64v-7.4c0-1.25.96-2.44,2.33-2.44l10.34-.02c1.46,0,2.52,1.09,2.52,2.51v6.51c0,1.26-.93,2.49-2.4,2.49Z"/>
    <path class="st0" d="M76.47,98.6h-10.48c-1.36.01-2.41-1.11-2.41-2.42v-6.64c0-1.33,1.05-2.43,2.41-2.43h10.36c1.36,0,2.42,1.1,2.42,2.43v6.65c0,1.16-.92,2.41-2.3,2.42Z"/>
  </g>
</svg>