<?xml version="1.0" encoding="UTF-8"?>
<svg id="Layer_1" xmlns="http://www.w3.org/2000/svg" version="1.1" viewBox="0 0 141.73 141.73">
  <!-- Generator: Adobe Illustrator 30.4.0, SVG Export Plug-In . SVG Version: 2.1.4 Build 226)  -->
  <defs>
    <style>
      .st0 {
        fill: #fff;
      }
    </style>
  </defs>
  <g>
    <path class="st0" d="M117.05,86.8v23.39c-.67,3.58-3.28,6.25-7.04,6.66h-47.93c1.94-2.74,2.68-5.9,2.43-9.23l46.7-26.96c3.12.87,5.17,3.23,5.84,6.14Z"/>
    <path class="st0" d="M107.28,76.61l-42.71,24.71v-2.5s28.54-49.44,28.54-49.44c3.48-1.15,7.17.5,9.01,3.72l7.74,13.52c1.89,3.3.91,7.97-2.58,9.99Z"/>
    <path class="st0" d="M87.61,48l-23.04,39.93v-55.28c0-1.13-.23-2.03-.43-3.11,2.24-1.06,4.87-.99,7.06.27l13.59,7.86c3.54,2.05,4.95,6.63,2.82,10.33Z"/>
  </g>
  <path class="st0" d="M52.65,25.26c3.66.7,6.47,3.79,6.47,7.73v76.14c-.03,4.05-2.89,7.16-6.87,7.73l-19.81-.09c-3.47-.02-6.93-3.29-6.93-6.94V32.3c0-3.74,3.31-6.38,6.57-7.04h20.57ZM47.38,100.02c0-2.81-2.28-5.09-5.09-5.09s-5.09,2.28-5.09,5.09,2.28,5.09,5.09,5.09,5.09-2.28,5.09-5.09Z"/>
</svg>