<?xml version="1.0" encoding="UTF-8"?>
<svg id="Layer_1" xmlns="http://www.w3.org/2000/svg" version="1.1" viewBox="0 0 141.73 141.73">
  <!-- Generator: Adobe Illustrator 30.4.0, SVG Export Plug-In . SVG Version: 2.1.4 Build 226)  -->
  <defs>
    <style>
      .st0 {
        fill: #fff;
      }
    </style>
  </defs>
  <path class="st0" d="M221.86,35.97c1.92.7,3.88,2.32,3.88,4.65v15.35c-.01,2.75-2.57,4.59-5.04,4.54s-4.85-1.94-4.86-4.6l-.05-14.86c0-2.58,1.72-4.53,4.15-5.08h1.92Z"/>
  <path class="st0" d="M268.98,35.97c2.02.58,4.04,2.31,4.04,4.68v15.25c0,2.66-2.37,4.56-4.87,4.61-2.25.04-4.92-1.79-4.94-4.43l-.15-14.82c-.03-2.62,1.56-4.6,3.93-5.29h1.98Z"/>
  <path class="st0" d="M276.31,44.92l5.72-.03c4.01.37,7.26,3.35,7.87,7.39v68.21c-.67,3.79-3.58,6.34-7.39,7.07h-75.93c-3.87-.67-6.78-3.21-7.39-7.08l.02-67.77c0-4.37,4.07-7.77,8.17-7.79l5.39-.03.1,11.35c.04,4.12,3.94,7.03,7.8,7.09s7.8-2.89,8.05-7.08l.1-11.35h31.46s.09,11.35.09,11.35c.03,4.12,3.98,7.03,7.82,7.08,4.13.05,7.57-2.91,8.12-7.08v-11.32ZM282.6,67.02h-76.13v53.36h76.13v-53.36Z"/>
  <path class="st0" d="M272.33,89.13h-10.91c-.99,0-1.82-.85-2.03-1.7v-7.37c.01-1.43,1.16-2.41,2.54-2.41h10.13c1.39,0,2.52,1.03,2.52,2.45v6.66c0,1.13-.93,2.37-2.25,2.37Z"/>
  <path class="st0" d="M227.42,89.14h-10.75c-1.03-.15-1.87-.79-2.18-1.77v-7.28c.01-1.42,1.13-2.45,2.53-2.45h10.13c1.38,0,2.54.99,2.54,2.41v6.72c0,1.24-.98,2.24-2.27,2.36Z"/>
  <path class="st0" d="M249.65,89.14h-10.34c-1.43.01-2.49-1.09-2.48-2.51l.02-6.63c0-1.16,1-2.32,2.2-2.33l10.35-.03c1.37,0,2.61.89,2.62,2.38l.02,6.61c0,1.29-.94,2.51-2.38,2.51Z"/>
  <path class="st0" d="M227.48,109.33h-10.7c-.84-.02-2.23-.76-2.24-1.71l-.04-7.5c0-1.18,1.05-2.3,2.29-2.3h10.57c1.36,0,2.33,1.2,2.33,2.45v6.58c0,1.27-.84,2.25-2.21,2.48Z"/>
  <path class="st0" d="M272.18,109.31h-10.47c-1.09,0-2-.67-2.32-1.64v-7.4c0-1.25.96-2.44,2.33-2.44l10.34-.02c1.46,0,2.52,1.09,2.52,2.51v6.51c0,1.26-.93,2.49-2.4,2.49Z"/>
  <path class="st0" d="M249.73,109.31h-10.48c-1.36.01-2.41-1.11-2.41-2.42v-6.64c0-1.33,1.05-2.43,2.41-2.43h10.36c1.36,0,2.42,1.1,2.42,2.43v6.65c0,1.16-.92,2.41-2.3,2.42Z"/>
  <path class="st0" d="M28.67,25.26l1.21.23c14.01,1.55,30.77,13.3,41.82,22.31,8.71-7.14,18.13-13.68,28.31-18.35,4.39-1.87,8.73-3.45,13.5-3.95l1.21-.24h3.35c7.88.8,13.97,5.54,14.82,13.62l-.05,4.57c-1.53,9.29-5.54,17.47-8.06,26.59-2.11-5.76-6.24-10.06-11.65-12.63-9.44-4.48-21.59-4.31-31.68-2.44,6.59,6.92,14.79,14.06,24.13,15.54,4.32.59,9.5-.48,11.73-4.17,1.79,2.15,3.26,4.45,4.55,6.82-6.96,10.71-20.77,8.04-30.66,2.12-4.25-2.55-7.66-5.79-11.54-8.92,4.29,5.7,8.23,10.75,11.74,16.59,3.71,5.74,6.67,11.66,9.69,17.79l4.78,11.6-13.79-9.18-9.4,13.69-.14-9.18c-.05-3.5-.43-6.77-.82-10.29-1.01-9.22-2.85-18.16-5.66-27.02-2.66.93-6.06.93-8.73,0-2.79,8.79-4.62,17.67-5.63,26.8-.4,3.59-.79,6.94-.85,10.51l-.14,9.18-9.4-13.69-13.79,9.18,4.78-11.6c3.05-6.18,6.03-12.16,9.79-17.93,3.48-5.79,7.41-10.79,11.65-16.45-3.87,3.12-7.29,6.38-11.53,8.91-9.91,5.93-23.68,8.6-30.67-2.11,1.3-2.38,2.77-4.69,4.56-6.83,2.23,3.69,7.41,4.76,11.73,4.17,9.35-1.49,17.54-8.62,24.13-15.54-10.03-1.85-22.13-2.03-31.52,2.37-5.48,2.57-9.68,6.88-11.81,12.71-2.27-8.25-5.79-15.72-7.56-24.04-1.38-6.47-.34-13.25,5.06-17.29,2.74-2.05,5.92-3.01,9.24-3.36l3.32-.08ZM80.3,61.45c.79-4.75-2.87-8.31-7.15-8.57l-2.9.04c-4.39.06-7.96,3.96-7.16,8.62,1.3-4.13,4.78-5.76,8.86-5.71s7.08,1.81,8.35,5.62Z"/>
</svg>